<svg width="16" height="16" viewBox="0 0 16 16" fill="none" xmlns="http://www.w3.org/2000/svg">
<path d="M9.00667 10.0999V9.41577L9.01488 9.41862C9.15348 9.46761 9.18676 9.49105 9.19248 9.49591C9.19924 9.50818 9.22667 9.57172 9.22667 9.76C9.22667 9.94284 9.1149 10.0616 9.00667 10.0999ZM9.19099 9.49357C9.19101 9.49352 9.19143 9.49407 9.19216 9.49534C9.19132 9.49424 9.19096 9.49361 9.19099 9.49357Z" fill="#666666" stroke="#666666"/>
<path d="M7.97996 1.26667C4.29996 1.28001 1.31996 4.27334 1.3333 7.95334C1.34663 11.6333 4.33996 14.6133 8.01996 14.6C11.7 14.5867 14.68 11.5933 14.6666 7.91334C14.6533 4.23334 11.66 1.26001 7.97996 1.26667ZM9.50663 8.00001C10.0266 8.18001 10.7266 8.56667 10.7266 9.76001C10.7266 10.7867 9.91996 11.6133 8.9333 11.6133H8.49996V12C8.49996 12.2733 8.2733 12.5 7.99996 12.5C7.72663 12.5 7.49996 12.2733 7.49996 12V11.6133H7.25996C6.16663 11.6133 5.27996 10.6933 5.27996 9.56001C5.27996 9.28667 5.50663 9.06001 5.77996 9.06001C6.0533 9.06001 6.27996 9.28667 6.27996 9.56001C6.27996 10.14 6.71996 10.6133 7.25996 10.6133H7.49996V8.36001L6.4933 8.00001C5.9733 7.82001 5.2733 7.43334 5.2733 6.24001C5.2733 5.21334 6.07996 4.38667 7.06663 4.38667H7.49996V4.00001C7.49996 3.72667 7.72663 3.50001 7.99996 3.50001C8.2733 3.50001 8.49996 3.72667 8.49996 4.00001V4.38667H8.73996C9.8333 4.38667 10.72 5.30667 10.72 6.44001C10.72 6.71334 10.4933 6.94001 10.22 6.94001C9.94663 6.94001 9.71996 6.71334 9.71996 6.44001C9.71996 5.86001 9.27996 5.38667 8.73996 5.38667H8.49996V7.64001L9.50663 8.00001Z" fill="#666666"/>
<path d="M6.99181 6.58805C6.85321 6.53906 6.81994 6.51562 6.81422 6.51076C6.80746 6.4985 6.78003 6.43495 6.78003 6.24667C6.78003 6.0497 6.89475 5.9337 7.00003 5.89832V6.5909L6.99181 6.58805ZM6.81571 6.51311C6.81568 6.51315 6.81526 6.5126 6.81454 6.51133C6.81537 6.51243 6.81574 6.51307 6.81571 6.51311Z" fill="#666666" stroke="#666666"/>
</svg>
