<svg width="25" height="24" viewBox="0 0 25 24" fill="none" xmlns="http://www.w3.org/2000/svg">
<g clip-path="url(#clip0_1423_2579)">
<path d="M20.6667 3H19.6667V2C19.6667 1.45 19.2167 1 18.6667 1C18.1167 1 17.6667 1.45 17.6667 2V3H7.66666V2C7.66666 1.45 7.21666 1 6.66666 1C6.11666 1 5.66666 1.45 5.66666 2V3H4.66666C3.56666 3 2.66666 3.9 2.66666 5V21C2.66666 22.1 3.56666 23 4.66666 23H20.6667C21.7667 23 22.6667 22.1 22.6667 21V5C22.6667 3.9 21.7667 3 20.6667 3ZM19.6667 21H5.66666C5.11666 21 4.66666 20.55 4.66666 20V8H20.6667V20C20.6667 20.55 20.2167 21 19.6667 21Z" fill="#666666"/>
</g>
<defs>
<clipPath id="clip0_1423_2579">
<rect width="24" height="24" fill="white" transform="translate(0.666656)"/>
</clipPath>
</defs>
</svg>
